{
  "asset": {
    "version": "2.0",
    "generator": "THREE.GLTFExporter r164"
  },
  "scenes": [
    {
      "name": "AuxScene",
      "nodes": [
        3
      ]
    }
  ],
  "scene": 0,
  "nodes": [
    {
      "matrix": [
        0.1,
        0,
        0,
        0,
        0,
        0.1,
        0,
        0,
        0,
        0,
        0.1,
        0,
        0,
        0,
        0,
        1
      ],
      "mesh": 0
    },
    {
      "matrix": [
        1,
        0,
        0,
        0,
        0,
        1,
        0,
        0,
        0,
        0,
        1,
        0,
        -2.220446049250313e-16,
        0,
        0,
        1
      ],
      "children": [
        0
      ]
    },
    {
      "children": [
        1
      ]
    },
    {
      "children": [
        2
      ]
    }
  ],
  "bufferViews": [
    {
      "buffer": 0,
      "byteOffset": 0,
      "byteLength": 557424,
      "target": 34962,
      "byteStride": 12
    },
    {
      "buffer": 0,
      "byteOffset": 557424,
      "byteLength": 371616,
      "target": 34962,
      "byteStride": 8
    },
    {
      "buffer": 0,
      "byteOffset": 929040,
      "byteLength": 557424,
      "target": 34962,
      "byteStride": 12
    },
    {
      "buffer": 0,
      "byteOffset": 1486464,
      "byteLength": 2880,
      "target": 34963
    },
    {
      "buffer": 0,
      "byteOffset": 1489344,
      "byteLength": 90024,
      "target": 34963
    }
  ],
  "buffers": [
    {
      "byteLength": 1579368,
      "uri": "data:application/octet-stream;base64,"
    }
  ],
  "accessors": [
    {
      "bufferView": 0,
      "componentType": 5126,
      "count": 46452,
      "max": [
        12.330952644348145,
        20.13193130493164,
        1.2000000476837158
      ],
      "min": [
        -12.330952644348145,
        -20.13193130493164,
        -1.2000000476837158
      ],
      "type": "VEC3"
    },
    {
      "bufferView": 1,
      "componentType": 5126,
      "count": 46452,
      "max": [
        81.70502471923828,
        1.5
      ],
      "min": [
        -133.69569396972656,
        -133.23292541503906
      ],
      "type": "VEC2"
    },
    {
      "bufferView": 2,
      "componentType": 5126,
      "count": 46452,
      "max": [
        1,
        0.9999963045120239,
        0.9999389052391052
      ],
      "min": [
        -1,
        -0.9999999403953552,
        -0.9999389052391052
      ],
      "type": "VEC3"
    },
    {
      "bufferView": 3,
      "componentType": 5123,
      "count": 1440,
      "max": [
        1439
      ],
      "min": [
        0
      ],
      "type": "SCALAR"
    },
    {
      "bufferView": 4,
      "componentType": 5123,
      "count": 45012,
      "max": [
        46451
      ],
      "min": [
        1440
      ],
      "type": "SCALAR"
    }
  ],
  "materials": [
    {
      "pbrMetallicRoughness": {
        "metallicFactor": 1,
        "roughnessFactor": 0
      },
      "doubleSided": true,
      "extras": {
        "texture": {
          "name": "metal",
          "path": "metal",
          "img": "textures/maps/metal.png",
          "category": "metal"
        },
        "materialType": "basic",
        "thumbnail": null,
        "isLibraryMaterial": true,
        "textures": {
          "map": null,
          "normalMap": null,
          "roughnessMap": null,
          "metalnessMap": null,
          "aoMap": null,
          "bumpMap": null,
          "emissiveMap": null,
          "displacementMap": null,
          "side": 2,
          "transparent": false,
          "opacity": 1,
          "depthWrite": true,
          "depthTest": true,
          "alphaTest": 0
        },
        "libraryTextureProps": []
      },
      "extensions": {
        "KHR_materials_ior": {
          "ior": 1.173913043478261
        },
        "KHR_materials_clearcoat": {
          "clearcoatFactor": 0.5,
          "clearcoatRoughnessFactor": 1
        },
        "KHR_materials_dispersion": {
          "dispersion": 0.3
        },
        "KHR_materials_emissive_strength": {
          "emissiveStrength": 0
        }
      }
    },
    {
      "pbrMetallicRoughness": {
        "metallicFactor": 1,
        "roughnessFactor": 0
      },
      "doubleSided": true,
      "extras": {
        "texture": {
          "name": "metal",
          "path": "metal",
          "img": "textures/maps/metal.png",
          "category": "metal"
        },
        "thumbnail": null,
        "isLibraryMaterial": true,
        "textures": {
          "map": null,
          "normalMap": null,
          "roughnessMap": null,
          "metalnessMap": null,
          "aoMap": null,
          "bumpMap": null,
          "emissiveMap": null,
          "displacementMap": null,
          "side": 2,
          "transparent": false,
          "opacity": 1,
          "depthWrite": true,
          "depthTest": true,
          "alphaTest": 0
        },
        "libraryTextureProps": []
      },
      "extensions": {
        "KHR_materials_ior": {
          "ior": 1.173913043478261
        },
        "KHR_materials_clearcoat": {
          "clearcoatFactor": 0.5,
          "clearcoatRoughnessFactor": 1
        },
        "KHR_materials_dispersion": {
          "dispersion": 0.3
        },
        "KHR_materials_emissive_strength": {
          "emissiveStrength": 0
        }
      }
    }
  ],
  "meshes": [
    {
      "primitives": [
        {
          "mode": 4,
          "attributes": {
            "POSITION": 0,
            "TEXCOORD_0": 1,
            "NORMAL": 2
          },
          "indices": 3,
          "material": 0
        },
        {
          "mode": 4,
          "attributes": {
            "POSITION": 0,
            "TEXCOORD_0": 1,
            "NORMAL": 2
          },
          "indices": 4,
          "material": 1
        }
      ]
    }
  ],
  "extensionsUsed": [
    "KHR_materials_ior",
    "KHR_materials_clearcoat",
    "KHR_materials_dispersion",
    "KHR_materials_emissive_strength"
  ]
}